<svg xmlns="http://www.w3.org/2000/svg" width="39" height="38" viewBox="0 0 39 38" fill="none">
  <path d="M22.8685 29.3386C19.7662 28.1863 16.5753 28.009 13.6503 28.8068C11.6117 29.3386 9.66166 30.4022 7.88893 31.7318L6.648 32.7954L6.29346 33.1499L7.09118 33.859C7.17982 33.859 7.17983 33.9477 7.26846 34.0363C7.44574 34.2136 7.62302 34.3022 7.88893 34.4795L8.42072 34.834L8.95255 34.3908C9.04118 34.3022 9.21846 34.1249 9.39573 34.0363C10.9912 32.7068 12.7639 31.8204 14.6253 31.3772C17.0185 30.7568 19.5889 30.8454 22.1594 31.8204C24.2866 32.6181 28.6298 33.5931 33.8594 31.3772L34.0367 31.2886L34.3026 31.0227C34.3026 30.934 34.3912 30.934 34.4798 30.8454C34.923 30.3136 35.3662 29.7818 35.7207 29.1613L37.4935 26.4136L34.6571 28.009C30.4912 30.3136 26.6798 30.7567 22.8685 29.3386Z" fill="currentColor"/>
  <path d="M10.7252 19.766C13.1184 19.1456 15.6888 19.2342 18.2593 20.2092C21.0956 21.2728 28.3638 22.7797 36.5184 15.4228L37.8479 14.0933L37.9366 14.0047L38.2911 13.6501L38.1138 13.2069C38.0252 12.8524 37.8479 12.4092 37.6706 11.966L37.2274 10.7251L36.3411 11.6115C36.2524 11.7887 36.0752 11.8774 35.8979 12.0546C31.9979 16.0433 25.9706 20.1206 19.057 17.6388C15.9547 16.4865 12.7638 16.3092 9.83882 17.1069C7.00246 17.9047 4.52063 19.4115 2.21609 21.5387V21.4501L0.886541 22.8683C0.886541 22.9569 0.797921 22.9569 0.709285 23.0456L0.443359 23.3115L0.532001 23.666C0.620638 24.1092 0.797905 24.5524 0.886541 24.9956L1.41836 26.4137L2.30473 25.2615C2.39336 25.0842 2.57063 24.9956 2.65927 24.8183C4.52063 23.1342 7.09109 20.741 10.7252 19.766Z" fill="currentColor"/>
  <path d="M2.12729 18.1703C4.16593 16.043 6.47046 14.7134 8.95228 14.0043C11.3455 13.3839 13.9159 13.4725 16.4864 14.4475C24.4636 17.3725 31.3773 12.5862 34.3909 10.0157L35.5432 8.86344L35.9864 8.50888L35.6318 7.97708C35.3659 7.71117 35.1887 7.35662 34.9228 7.00208L34.3909 6.29297L33.7705 6.91343C33.6818 7.00207 33.5046 7.17934 33.4159 7.26797C29.6932 10.8134 23.9318 14.4475 17.3727 11.9657C14.2705 10.8134 11.0796 10.6362 8.15456 11.4339C6.29319 11.9657 4.52046 12.8521 2.74773 14.0043L0.886364 15.5112C0.709091 15.6884 0.620455 15.7771 0.443182 15.9544L0.265925 16.1316V16.3975C0.177289 17.018 0.177278 17.6384 0.0886418 18.1703L0 20.3862L1.50683 18.7907C1.6841 18.6134 1.86139 18.3475 2.12729 18.1703Z" fill="currentColor"/>
  <path d="M25.4384 35.3659L25.2612 35.8977L25.4384 35.3659C25.1725 35.2772 24.9953 35.1886 24.7294 35.0999C21.6271 33.9477 18.4362 33.7704 15.5112 34.5681C14.8907 34.7454 14.2703 34.9227 13.6498 35.1886L11.5225 36.1636L10.9907 36.4295L12.7634 37.0499C13.2953 37.2272 13.8271 37.4045 14.3589 37.5818L14.6248 37.6704L14.8907 37.5818C15.1566 37.4931 15.4225 37.3158 15.6884 37.3158C15.8657 37.3158 16.043 37.2272 16.2203 37.1386C18.3475 36.6068 20.6521 36.6068 23.1339 37.4045C23.3998 37.4931 23.5771 37.5818 23.843 37.6704L24.2862 37.8477L24.5521 37.759C25.1725 37.5818 25.8816 37.4045 26.4134 37.1386L28.8953 36.2522L26.3248 35.6318C26.0589 35.5431 25.7043 35.4545 25.4384 35.3659Z" fill="currentColor"/>
  <path d="M38.9998 17.0181L37.6702 18.3476C37.493 18.5249 37.3157 18.7022 37.1384 18.8794C33.5044 22.3363 27.6544 26.059 21.0953 23.5772C17.993 22.4249 14.8021 22.2476 11.8771 23.0454C9.12936 23.8431 6.64752 25.2613 4.43161 27.3885L3.27934 28.6294L2.9248 29.0726L3.27934 29.6044C3.54525 29.959 3.72254 30.2249 3.89981 30.5794L4.43161 31.3772L5.05207 30.5794C5.14071 30.4908 5.31798 30.3135 5.40661 30.2249C7.53389 27.9203 9.83843 26.5022 12.4975 25.7931C14.8907 25.1726 17.4612 25.2612 20.0316 26.2362C22.2475 27.034 24.5521 27.2999 26.8566 27.034C30.9339 26.5908 35.0112 24.2863 38.0248 21.7158C38.2021 21.5385 38.3793 21.4499 38.5566 21.2726L38.8225 21.0067V20.7408C38.8225 20.209 38.9112 19.5885 38.9112 19.0567L38.9998 17.0181Z" fill="currentColor"/>
  <path d="M5.31819 8.8635L5.05229 8.33168L5.31819 8.8635C5.85001 8.59759 6.47048 8.42031 7.0023 8.24303C9.39548 7.62258 11.9659 7.71122 14.5364 8.68622C16.2205 9.30667 17.9046 9.57258 19.7659 9.57258C23.4887 9.57258 27.2114 8.24304 30.6682 5.67259L31.9977 4.60894L32.4409 4.2544L31.6432 3.63393C31.3773 3.36802 31.0227 3.10213 30.6682 2.92485L30.1364 2.57031L29.6932 2.92485C29.5159 3.01349 29.4273 3.19076 29.25 3.27939C24.5523 6.82485 19.8546 7.79986 15.4228 6.11577C12.2318 4.96349 9.04092 4.69759 5.85001 5.67259C5.5841 5.76122 5.31819 5.84985 4.96365 5.93848L4.78639 6.02713L4.52047 6.29302C4.52047 6.38166 4.43185 6.38167 4.34321 6.47031C3.98866 7.00213 3.54547 7.44532 3.19092 7.97714L1.50684 10.5476L4.25457 9.1294C4.69775 9.1294 5.05228 8.95214 5.31819 8.8635Z" fill="currentColor"/>
  <path d="M12.5864 2.83635L12.8523 2.92499C14.0045 3.36817 15.7773 3.81135 17.9932 3.81135C20.2977 3.81135 22.5137 3.27953 24.7296 2.39317L27.4773 1.06362L25.6159 0.443182C25.0841 0.265909 24.5523 0.0886364 23.9318 0H23.6659L23.4 0.0886147C23.1341 0.177251 22.8682 0.354545 22.6023 0.443182C19.9432 1.41818 17.2841 1.59545 14.7136 0.886364C14.4477 0.797727 14.1818 0.709075 13.9159 0.620438L13.65 0.531797L13.3841 0.620438C12.8523 0.797711 12.3205 0.974995 11.7887 1.2409L9.75 2.12727L11.8773 2.74771C12.0546 2.65907 12.3205 2.74771 12.5864 2.83635Z" fill="currentColor"/>
</svg>
